<svg xmlns="http://www.w3.org/2000/svg" width="600" height="500" style="background:#ffffff;">
  <!-- hosts -->
  <g transform="translate(0 0)">
    <polygon points="0,0 290,0 120,400 0,400" fill-opacity="0" stroke-width="2" stroke="#85144b"/>
    <text x="20" y="50" font-size="18" style="font-style:italic;">primary</text>
    <text x="20" y="65" font-size="12">ssh 192.168.60.1</text>
  </g>
  <g transform="translate(290 90)">
    <rect width="310" height="170" fill-opacity="0" stroke-width="2" stroke="#85144b"/>
    <text x="20" y="80" font-size="18" style="font-style:italic;">ab</text>
    <text x="20" y="95" font-size="12">ssh 192.168.60.2</text>
  </g>
  <g transform="translate(290 290)">
    <rect width="310" height="170" fill-opacity="0" stroke-width="2" stroke="#85144b"/>
    <text x="20" y="80" font-size="18" style="font-style:italic;">cd</text>
    <text x="20" y="95" font-size="12">ssh 192.168.60.3</text>
  </g>
  <!-- CP -->
  <g transform="translate(150 0)">
    <rect width="100" height="50" fill="#0074b9"/>
    <text x="50" y="25" text-anchor="middle" font-size="18">cp</text>
  </g>
  <!-- gNB -->
  <g transform="translate(0 150)">
    <rect width="100" height="50" fill="#aaaaaa"/>
    <text x="50" y="25" text-anchor="middle" font-size="18">gnb0</text>
  </g>
  <g transform="translate(0 250)">
    <rect width="100" height="50" fill="#aaaaaa"/>
    <text x="50" y="25" text-anchor="middle" font-size="18">gnb1</text>
  </g>
  <!-- UPF -->
  <g transform="translate(300 100)">
    <rect width="100" height="50" fill="#2ecc40"/>
    <text x="50" y="25" text-anchor="middle" font-size="18">upf_a</text>
  </g>
  <g transform="translate(300 200)">
    <rect width="100" height="50" fill="#2ecc40"/>
    <text x="50" y="25" text-anchor="middle" font-size="18">upf_b</text>
  </g>
  <g transform="translate(300 300)">
    <rect width="100" height="50" fill="#2ecc40"/>
    <text x="50" y="25" text-anchor="middle" font-size="18">upf_c</text>
  </g>
  <g transform="translate(300 400)">
    <rect width="100" height="50" fill="#2ecc40"/>
    <text x="50" y="25" text-anchor="middle" font-size="18">upf_d</text>
  </g>
  <!-- DN -->
  <g transform="translate(500 100)">
    <rect width="100" height="25" fill="#dddddd"/>
    <text x="50" y="20" text-anchor="middle" font-size="18">dn_a00</text>
  </g>
  <g transform="translate(500 130)">
    <rect width="100" height="25" fill="#dddddd"/>
    <text x="50" y="20" text-anchor="middle" font-size="18">dn_a01</text>
  </g>
  <g transform="translate(500 200)">
    <rect width="100" height="25" fill="#dddddd"/>
    <text x="50" y="20" text-anchor="middle" font-size="18">dn_b02</text>
  </g>
  <g transform="translate(500 230)">
    <rect width="100" height="25" fill="#dddddd"/>
    <text x="50" y="20" text-anchor="middle" font-size="18">dn_b03</text>
  </g>
  <g transform="translate(500 300)">
    <rect width="100" height="25" fill="#dddddd"/>
    <text x="50" y="20" text-anchor="middle" font-size="18">dn_c04</text>
  </g>
  <g transform="translate(500 330)">
    <rect width="100" height="25" fill="#dddddd"/>
    <text x="50" y="20" text-anchor="middle" font-size="18">dn_c05</text>
  </g>
  <g transform="translate(500 400)">
    <rect width="100" height="25" fill="#dddddd"/>
    <text x="50" y="20" text-anchor="middle" font-size="18">dn_d06</text>
  </g>
  <g transform="translate(500 430)">
    <rect width="100" height="25" fill="#dddddd"/>
    <text x="50" y="20" text-anchor="middle" font-size="18">dn_d07</text>
  </g>
  <!-- N2 -->
  <text x="180" y="50" text-anchor="middle" font-size="18">N2</text>
  <line x1="180" y1="50" x2="100" y2="150" stroke="#0074b9"/>
  <line x1="180" y1="50" x2="100" y2="250" stroke="#0074b9"/>
  <!-- N4 -->
  <text x="220" y="50" text-anchor="middle" font-size="18">N4</text>
  <line x1="220" y1="50" x2="300" y2="100" stroke="#0074b9"/>
  <line x1="220" y1="50" x2="300" y2="200" stroke="#0074b9"/>
  <line x1="220" y1="50" x2="300" y2="300" stroke="#0074b9"/>
  <line x1="220" y1="50" x2="300" y2="400" stroke="#0074b9"/>
  <!-- N3 -->
  <text x="200" y="350" text-anchor="middle" font-size="18">N3</text>
  <line x1="100" y1="175" x2="300" y2="125" stroke="#2ecc40"/>
  <line x1="100" y1="175" x2="300" y2="225" stroke="#2ecc40"/>
  <line x1="100" y1="175" x2="300" y2="325" stroke="#2ecc40"/>
  <line x1="100" y1="275" x2="300" y2="125" stroke="#2ecc40"/>
  <line x1="100" y1="275" x2="300" y2="225" stroke="#2ecc40"/>
  <line x1="100" y1="275" x2="300" y2="325" stroke="#2ecc40"/>
  <!-- N6 -->
  <text x="450" y="450" text-anchor="middle" font-size="18">N6</text>
  <line x1="400" y1="125" x2="500" y2="110" stroke="#2ecc40"/>
  <line x1="400" y1="125" x2="500" y2="140" stroke="#2ecc40"/>
  <line x1="400" y1="225" x2="500" y2="210" stroke="#2ecc40"/>
  <line x1="400" y1="225" x2="500" y2="240" stroke="#2ecc40"/>
  <line x1="400" y1="325" x2="500" y2="310" stroke="#2ecc40"/>
  <line x1="400" y1="325" x2="500" y2="340" stroke="#2ecc40"/>
  <line x1="400" y1="425" x2="500" y2="410" stroke="#2ecc40"/>
  <line x1="400" y1="425" x2="500" y2="440" stroke="#2ecc40"/>
</svg>