<svg xmlns="http://www.w3.org/2000/svg" width="500" height="300" style="background:#ffffff;">
  <!-- hosts -->
  <g transform="translate(100 0)">
    <rect width="300" height="70" fill-opacity="0" stroke-width="2" stroke="#85144b"/>
    <text y="60" text-anchor="end" font-size="18" style="font-style:italic;">primary</text>
    <text y="75" text-anchor="end" font-size="12">ssh 192.168.60.1</text>
  </g>
  <g transform="translate(0 90)">
    <rect width="120" height="170" fill-opacity="0" stroke-width="2" stroke="#85144b"/>
    <text y="185" font-size="18" style="font-style:italic;">ran</text>
    <text y="200" font-size="12">ssh 192.168.60.2</text>
  </g>
  <g transform="translate(380 90)">
    <rect width="120" height="170" fill-opacity="0" stroke-width="2" stroke="#85144b"/>
    <text y="185" font-size="18" style="font-style:italic;">dn</text>
    <text y="200" font-size="12">ssh 192.168.60.3</text>
  </g>
  <!-- CP -->
  <g transform="translate(125 0)">
    <rect width="100" height="50" fill="#0074b9"/>
    <text x="50" y="25" text-anchor="middle" font-size="18">amf</text>
  </g>
  <g transform="translate(275 0)">
    <rect width="100" height="50" fill="#0074b9"/>
    <text x="50" y="25" text-anchor="middle" font-size="18">smf</text>
  </g>
  <line x1="225" y1="25" x2="275" y2="25" stroke="#0074b9"/>
  <!-- gNB -->
  <g transform="translate(0 100)">
    <rect width="100" height="50" fill="#aaaaaa"/>
    <text x="50" y="25" text-anchor="middle" font-size="18">gnb0</text>
  </g>
  <g transform="translate(0 200)">
    <rect width="100" height="50" fill="#aaaaaa"/>
    <text x="50" y="25" text-anchor="middle" font-size="18">gnb1</text>
  </g>
  <!-- UPF -->
  <g transform="translate(400 100)">
    <rect width="100" height="50" fill="#2ecc40"/>
    <text x="50" y="25" text-anchor="middle" font-size="18">upf0</text>
  </g>
  <g transform="translate(400 200)">
    <rect width="100" height="50" fill="#2ecc40"/>
    <text x="50" y="25" text-anchor="middle" font-size="18">upf1</text>
  </g>
  <!-- N2 -->
  <text x="175" y="50" text-anchor="middle" font-size="18">N2</text>
  <line x1="175" y1="50" x2="175" y2="70" stroke="#0074b9"/>
  <line x1="120" y1="175" x2="175" y2="70" stroke="#0074b9"/>
  <line x1="120" y1="175" x2="100" y2="150" stroke="#0074b9"/>
  <line x1="120" y1="175" x2="100" y2="200" stroke="#0074b9"/>
  <g transform="translate(175 70)">
    <circle r="10" fill="#f012be"/>
    <text x="10" y="10" font-size="18">N2</text>
    <text x="0" y="20" text-anchor="middle" font-size="12">192.168.62.1</text>
  </g>
  <g transform="translate(120 175)">
    <circle r="10" fill="#f012be"/>
    <text x="-10" y="10" text-anchor="end" font-size="18">N2</text>
    <text x="0" y="20" text-anchor="middle" font-size="12">192.168.62.2</text>
  </g>
  <!-- N4 -->
  <text x="325" y="50" text-anchor="middle" font-size="18">N4</text>
  <line x1="325" y1="50" x2="325" y2="70" stroke="#0074b9"/>
  <line x1="380" y1="175" x2="325" y2="70" stroke="#0074b9"/>
  <line x1="380" y1="175" x2="400" y2="150" stroke="#0074b9"/>
  <line x1="380" y1="175" x2="400" y2="200" stroke="#0074b9"/>
  <g transform="translate(325 70)">
    <circle r="10" fill="#f012be"/>
    <text x="-10" y="10" text-anchor="end" font-size="18">N4</text>
    <text x="0" y="20" text-anchor="middle" font-size="12">192.168.64.1</text>
  </g>
  <g transform="translate(380 175)">
    <circle r="10" fill="#f012be"/>
    <text x="10" y="10" font-size="18">N4</text>
    <text x="0" y="20" text-anchor="middle" font-size="12">192.168.64.3</text>
  </g>
  <!-- N3 -->
  <line x1="250" y1="175" x2="100" y2="125" stroke="#2ecc40"/>
  <line x1="250" y1="175" x2="100" y2="225" stroke="#2ecc40"/>
  <line x1="250" y1="175" x2="400" y2="125" stroke="#2ecc40"/>
  <line x1="250" y1="175" x2="400" y2="225" stroke="#2ecc40"/>
  <g transform="translate(250 175)">
    <circle r="10" fill="#ffdc00"/>
    <text y="-10" text-anchor="middle" font-size="18">N3</text>
    <text x="0" y="20" text-anchor="middle" font-size="12">physical switch</text>
  </g>
  <g transform="translate(110 125)">
    <circle r="10" fill="#ffdc00"/>
    <text x="0" y="20" text-anchor="middle" font-size="12">02:00:00:03:00:10</text>
  </g>
  <g transform="translate(110 225)">
    <circle r="10" fill="#ffdc00"/>
    <text x="0" y="20" text-anchor="middle" font-size="12">02:00:00:03:00:11</text>
  </g>
  <g transform="translate(390 125)">
    <circle r="10" fill="#ffdc00"/>
    <text x="0" y="20" text-anchor="middle" font-size="12">02:00:00:03:00:20</text>
  </g>
  <g transform="translate(390 225)">
    <circle r="10" fill="#ffdc00"/>
    <text x="0" y="20" text-anchor="middle" font-size="12">02:00:00:03:00:21</text>
  </g>
</svg>