<svg xmlns="http://www.w3.org/2000/svg" width="700" height="150" style="background:#ffffff;">
  <!-- UE -->
  <g transform="translate(0 0)">
    <rect width="140" height="50" fill="#39cccc"/>
    <line x1="70" y1="0" x2="70" y2="50" stroke="#111111" stroke-dasharray="4"/>
    <text x="35" y="25" text-anchor="middle" font-size="18">client0</text>
    <text x="105" y="25" text-anchor="middle" font-size="18">ue0</text>
  </g>
  <g transform="translate(0 100)">
    <rect width="140" height="50" fill="#39cccc"/>
    <line x1="70" y1="0" x2="70" y2="50" stroke="#111111" stroke-dasharray="4"/>
    <text x="35" y="25" text-anchor="middle" font-size="18">client1</text>
    <text x="105" y="25" text-anchor="middle" font-size="18">ue1</text>
  </g>
  <!-- gNB -->
  <g transform="translate(200 50)">
    <rect width="100" height="50" fill="#aaaaaa"/>
    <text x="50" y="25" text-anchor="middle" font-size="18">gnb0</text>
  </g>
  <!-- UPF -->
  <g transform="translate(350 50)">
    <rect width="100" height="50" fill="#2ecc40"/>
    <text x="50" y="25" text-anchor="middle" font-size="18">upf1</text>
  </g>
  <!-- DN -->
  <g transform="translate(500 25)">
    <rect width="200" height="100" fill="#dddddd"/>
    <line x1="100" y1="0" x2="100" y2="100" stroke="#111111" stroke-dasharray="4"/>
    <line x1="100" y1="50" x2="200" y2="50" stroke="#111111" stroke-dasharray="4"/>
    <text x="50" y="50" text-anchor="middle" font-size="18">dn_internet</text>
    <text x="150" y="25" text-anchor="middle" font-size="18">server0</text>
    <text x="150" y="75" text-anchor="middle" font-size="18">server1</text>
  </g>
  <!-- air -->
  <text x="170" y="75" text-anchor="middle" font-size="18">air</text>
  <line x1="140" y1="25" x2="200" y2="75" stroke="#111111"/>
  <line x1="140" y1="125" x2="200" y2="75" stroke="#111111"/>
  <!-- N3 -->
  <text x="325" y="60" text-anchor="middle" font-size="18">N3</text>
  <line x1="300" y1="75" x2="350" y2="75" stroke="#2ecc40"/>
  <!-- N6 -->
  <text x="475" y="60" text-anchor="middle" font-size="18">N6</text>
  <line x1="450" y1="75" x2="500" y2="75" stroke="#2ecc40"/>
</svg>
